<svg width="546" height="281" viewBox="0 0 546 281" version="1.1" xmlns="http://www.w3.org/2000/svg" xmlns:xlink="http://www.w3.org/1999/xlink" xmlns:figma="http://www.figma.com/figma/ns">
<title>Group</title>
<desc>Created using Figma</desc>
<g id="Canvas" transform="translate(1166 853)" figma:type="canvas">
<g id="Group" figma:type="frame">
<g id="Group" figma:type="frame">
<g id="Canvas" figma:type="frame">
<g id="Ellipse" figma:type="frame">
<g id="Vector" figma:type="vector">
<use xlink:href="#path0_fill" transform="translate(-1027 -853)" fill="#F2994A" fill-opacity="0.5"/>
</g>
</g>
</g>
<g id="TRAVERSE" figma:type="text">
<use xlink:href="#path1_fill" transform="translate(-939 -826)" fill="#4F4F4F"/>
</g>
<g id="Function0 A =&#62; ? Future" figma:type="text">
<use xlink:href="#path2_fill" transform="translate(-738 -745)"/>
</g>
</g>
<g id="Ellipse" figma:type="ellipse">
<use xlink:href="#path3_fill" transform="translate(-1166 -853)" fill="#56CCF2" fill-opacity="0.5"/>
</g>
<g id="Set" figma:type="text">
<use xlink:href="#path4_fill" transform="translate(-1105 -724)"/>
</g>
<g id="Either[A, ?] List Map[A, ?] Option Stream Try Vector (A, ?)" figma:type="text">
<use xlink:href="#path5_fill" transform="translate(-936 -778)"/>
</g>
<g id="FOLDABLE" figma:type="text">
<use xlink:href="#path6_fill" transform="translate(-1070 -826)" fill="#4F4F4F"/>
</g>
<g id="FUNCTOR" figma:type="text">
<use xlink:href="#path7_fill" transform="translate(-791 -826)" fill="#4F4F4F"/>
</g>
</g>
</g>
<defs>
<path id="path0_fill" d="M 407 140.5C 407 218.096 315.89 281 203.5 281C 91.1101 281 0 218.096 0 140.5C 0 62.904 91.1101 0 203.5 0C 315.89 0 407 62.904 407 140.5Z"/>
<path id="path1_fill" d="M 10.3271 5.5918L 6.21387 5.5918L 6.21387 17L 4.53516 17L 4.53516 5.5918L 0.430664 5.5918L 0.430664 4.20312L 10.3271 4.20312L 10.3271 5.5918ZM 16.9189 11.8232L 13.9131 11.8232L 13.9131 17L 12.2168 17L 12.2168 4.20312L 16.4531 4.20312C 17.8945 4.20312 19.002 4.53125 19.7754 5.1875C 20.5547 5.84375 20.9443 6.79883 20.9443 8.05273C 20.9443 8.84961 20.7275 9.54395 20.2939 10.1357C 19.8662 10.7275 19.2686 11.1699 18.501 11.4629L 21.5068 16.8945L 21.5068 17L 19.6963 17L 16.9189 11.8232ZM 13.9131 10.4434L 16.5059 10.4434C 17.3438 10.4434 18.0088 10.2266 18.501 9.79297C 18.999 9.35938 19.248 8.7793 19.248 8.05273C 19.248 7.26172 19.0107 6.65527 18.5361 6.2334C 18.0674 5.81152 17.3877 5.59766 16.4971 5.5918L 13.9131 5.5918L 13.9131 10.4434ZM 30.3838 13.6602L 25.0225 13.6602L 23.8184 17L 22.0781 17L 26.9648 4.20312L 28.4414 4.20312L 33.3369 17L 31.6055 17L 30.3838 13.6602ZM 25.5322 12.2715L 29.8828 12.2715L 27.7031 6.28613L 25.5322 12.2715ZM 38.5225 14.7588L 42.1787 4.20312L 44.0244 4.20312L 39.2783 17L 37.7842 17L 33.0469 4.20312L 34.8838 4.20312L 38.5225 14.7588ZM 52.9805 11.085L 47.4346 11.085L 47.4346 15.6201L 53.877 15.6201L 53.877 17L 45.7471 17L 45.7471 4.20312L 53.7891 4.20312L 53.7891 5.5918L 47.4346 5.5918L 47.4346 9.70508L 52.9805 9.70508L 52.9805 11.085ZM 60.6709 11.8232L 57.665 11.8232L 57.665 17L 55.9688 17L 55.9688 4.20312L 60.2051 4.20312C 61.6465 4.20312 62.7539 4.53125 63.5273 5.1875C 64.3066 5.84375 64.6963 6.79883 64.6963 8.05273C 64.6963 8.84961 64.4795 9.54395 64.0459 10.1357C 63.6182 10.7275 63.0205 11.1699 62.2529 11.4629L 65.2588 16.8945L 65.2588 17L 63.4482 17L 60.6709 11.8232ZM 57.665 10.4434L 60.2578 10.4434C 61.0957 10.4434 61.7607 10.2266 62.2529 9.79297C 62.751 9.35938 63 8.7793 63 8.05273C 63 7.26172 62.7627 6.65527 62.2881 6.2334C 61.8193 5.81152 61.1396 5.59766 60.249 5.5918L 57.665 5.5918L 57.665 10.4434ZM 70.8398 11.2959C 69.3926 10.8799 68.3379 10.3701 67.6758 9.7666C 67.0195 9.15723 66.6914 8.40723 66.6914 7.5166C 66.6914 6.50879 67.0928 5.67676 67.8955 5.02051C 68.7041 4.3584 69.7529 4.02734 71.042 4.02734C 71.9209 4.02734 72.7031 4.19727 73.3887 4.53711C 74.0801 4.87695 74.6133 5.3457 74.9883 5.94336C 75.3691 6.54102 75.5596 7.19434 75.5596 7.90332L 73.8633 7.90332C 73.8633 7.12988 73.6172 6.52344 73.125 6.08398C 72.6328 5.63867 71.9385 5.41602 71.042 5.41602C 70.21 5.41602 69.5596 5.60059 69.0908 5.96973C 68.6279 6.33301 68.3965 6.83984 68.3965 7.49023C 68.3965 8.01172 68.6162 8.4541 69.0557 8.81738C 69.501 9.1748 70.2539 9.50293 71.3145 9.80176C 72.3809 10.1006 73.2129 10.4316 73.8105 10.7949C 74.4141 11.1523 74.8594 11.5713 75.1465 12.0518C 75.4395 12.5322 75.5859 13.0977 75.5859 13.748C 75.5859 14.7852 75.1816 15.6172 74.373 16.2441C 73.5645 16.8652 72.4834 17.1758 71.1299 17.1758C 70.251 17.1758 69.4307 17.0088 68.6689 16.6748C 67.9072 16.335 67.3184 15.8721 66.9023 15.2861C 66.4922 14.7002 66.2871 14.0352 66.2871 13.291L 67.9834 13.291C 67.9834 14.0645 68.2676 14.6768 68.8359 15.1279C 69.4102 15.5732 70.1748 15.7959 71.1299 15.7959C 72.0205 15.7959 72.7031 15.6143 73.1777 15.251C 73.6523 14.8877 73.8896 14.3926 73.8896 13.7656C 73.8896 13.1387 73.6699 12.6553 73.2305 12.3154C 72.791 11.9697 71.9941 11.6299 70.8398 11.2959ZM 84.9902 11.085L 79.4443 11.085L 79.4443 15.6201L 85.8867 15.6201L 85.8867 17L 77.7568 17L 77.7568 4.20312L 85.7988 4.20312L 85.7988 5.5918L 79.4443 5.5918L 79.4443 9.70508L 84.9902 9.70508L 84.9902 11.085Z"/>
<path id="path2_fill" d="M 8.7373 11.3486L 3.36719 11.3486L 3.36719 17L 1.67969 17L 1.67969 4.20312L 9.60742 4.20312L 9.60742 5.5918L 3.36719 5.5918L 3.36719 9.96875L 8.7373 9.96875L 8.7373 11.3486ZM 17.0518 16.0596C 16.4189 16.8037 15.4902 17.1758 14.2656 17.1758C 13.252 17.1758 12.4785 16.8828 11.9453 16.2969C 11.418 15.7051 11.1514 14.832 11.1455 13.6777L 11.1455 7.49023L 12.7715 7.49023L 12.7715 13.6338C 12.7715 15.0752 13.3574 15.7959 14.5293 15.7959C 15.7715 15.7959 16.5977 15.333 17.0078 14.4072L 17.0078 7.49023L 18.6338 7.49023L 18.6338 17L 17.0869 17L 17.0518 16.0596ZM 22.6504 7.49023L 22.7031 8.68555C 23.4297 7.77148 24.3789 7.31445 25.5508 7.31445C 27.5605 7.31445 28.5742 8.44824 28.5918 10.7158L 28.5918 17L 26.9658 17L 26.9658 10.707C 26.96 10.0215 26.8018 9.51465 26.4912 9.18652C 26.1865 8.8584 25.709 8.69434 25.0586 8.69434C 24.5312 8.69434 24.0684 8.83496 23.6699 9.11621C 23.2715 9.39746 22.9609 9.7666 22.7383 10.2236L 22.7383 17L 21.1123 17L 21.1123 7.49023L 22.6504 7.49023ZM 34.8584 15.8486C 35.4385 15.8486 35.9453 15.6729 36.3789 15.3213C 36.8125 14.9697 37.0527 14.5303 37.0996 14.0029L 38.6377 14.0029C 38.6084 14.5479 38.4209 15.0664 38.0752 15.5586C 37.7295 16.0508 37.2666 16.4434 36.6865 16.7363C 36.1123 17.0293 35.5029 17.1758 34.8584 17.1758C 33.5635 17.1758 32.5322 16.7451 31.7646 15.8838C 31.0029 15.0166 30.6221 13.833 30.6221 12.333L 30.6221 12.0605C 30.6221 11.1348 30.792 10.3115 31.1318 9.59082C 31.4717 8.87012 31.958 8.31055 32.5908 7.91211C 33.2295 7.51367 33.9824 7.31445 34.8496 7.31445C 35.916 7.31445 36.8008 7.63379 37.5039 8.27246C 38.2129 8.91113 38.5908 9.74023 38.6377 10.7598L 37.0996 10.7598C 37.0527 10.1445 36.8184 9.64062 36.3965 9.24805C 35.9805 8.84961 35.4648 8.65039 34.8496 8.65039C 34.0234 8.65039 33.3818 8.94922 32.9248 9.54688C 32.4736 10.1387 32.248 10.9971 32.248 12.1221L 32.248 12.4297C 32.248 13.5254 32.4736 14.3691 32.9248 14.9609C 33.376 15.5527 34.0205 15.8486 34.8584 15.8486ZM 42.6719 5.1875L 42.6719 7.49023L 44.4473 7.49023L 44.4473 8.74707L 42.6719 8.74707L 42.6719 14.6445C 42.6719 15.0254 42.751 15.3125 42.9092 15.5059C 43.0674 15.6934 43.3369 15.7871 43.7178 15.7871C 43.9053 15.7871 44.1631 15.752 44.4912 15.6816L 44.4912 17C 44.0635 17.1172 43.6475 17.1758 43.2432 17.1758C 42.5166 17.1758 41.9688 16.9561 41.5996 16.5166C 41.2305 16.0771 41.0459 15.4531 41.0459 14.6445L 41.0459 8.74707L 39.3145 8.74707L 39.3145 7.49023L 41.0459 7.49023L 41.0459 5.1875L 42.6719 5.1875ZM 48.1211 17L 46.4951 17L 46.4951 7.49023L 48.1211 7.49023L 48.1211 17ZM 46.3633 4.96777C 46.3633 4.7041 46.4424 4.48145 46.6006 4.2998C 46.7646 4.11816 47.0049 4.02734 47.3213 4.02734C 47.6377 4.02734 47.8779 4.11816 48.042 4.2998C 48.2061 4.48145 48.2881 4.7041 48.2881 4.96777C 48.2881 5.23145 48.2061 5.45117 48.042 5.62695C 47.8779 5.80273 47.6377 5.89062 47.3213 5.89062C 47.0049 5.89062 46.7646 5.80273 46.6006 5.62695C 46.4424 5.45117 46.3633 5.23145 46.3633 4.96777ZM 50.3008 12.1572C 50.3008 11.2256 50.4824 10.3877 50.8457 9.64355C 51.2148 8.89941 51.7246 8.3252 52.375 7.9209C 53.0312 7.5166 53.7783 7.31445 54.6162 7.31445C 55.9111 7.31445 56.957 7.7627 57.7539 8.65918C 58.5566 9.55566 58.958 10.748 58.958 12.2363L 58.958 12.3506C 58.958 13.2764 58.7793 14.1084 58.4219 14.8467C 58.0703 15.5791 57.5635 16.1504 56.9014 16.5605C 56.2451 16.9707 55.4893 17.1758 54.6338 17.1758C 53.3447 17.1758 52.2988 16.7275 51.4961 15.8311C 50.6992 14.9346 50.3008 13.748 50.3008 12.2715L 50.3008 12.1572ZM 51.9355 12.3506C 51.9355 13.4053 52.1787 14.252 52.665 14.8906C 53.1572 15.5293 53.8135 15.8486 54.6338 15.8486C 55.46 15.8486 56.1162 15.5264 56.6025 14.8818C 57.0889 14.2314 57.332 13.3232 57.332 12.1572C 57.332 11.1143 57.083 10.2705 56.585 9.62598C 56.0928 8.97559 55.4365 8.65039 54.6162 8.65039C 53.8135 8.65039 53.166 8.96973 52.6738 9.6084C 52.1816 10.2471 51.9355 11.1611 51.9355 12.3506ZM 62.5352 7.49023L 62.5879 8.68555C 63.3145 7.77148 64.2637 7.31445 65.4355 7.31445C 67.4453 7.31445 68.459 8.44824 68.4766 10.7158L 68.4766 17L 66.8506 17L 66.8506 10.707C 66.8447 10.0215 66.6865 9.51465 66.376 9.18652C 66.0713 8.8584 65.5938 8.69434 64.9434 8.69434C 64.416 8.69434 63.9531 8.83496 63.5547 9.11621C 63.1562 9.39746 62.8457 9.7666 62.623 10.2236L 62.623 17L 60.9971 17L 60.9971 7.49023L 62.5352 7.49023ZM 78.7861 11.542C 78.7861 13.4463 78.4609 14.8613 77.8105 15.7871C 77.1602 16.7129 76.1436 17.1758 74.7607 17.1758C 73.3955 17.1758 72.3848 16.7246 71.7285 15.8223C 71.0723 14.9141 70.7324 13.5605 70.709 11.7617L 70.709 9.59082C 70.709 7.70996 71.0342 6.3125 71.6846 5.39844C 72.335 4.48438 73.3545 4.02734 74.7432 4.02734C 76.1201 4.02734 77.1338 4.46973 77.7842 5.35449C 78.4346 6.2334 78.7686 7.59277 78.7861 9.43262L 78.7861 11.542ZM 77.1602 9.31836C 77.1602 7.94141 76.9668 6.93945 76.5801 6.3125C 76.1934 5.67969 75.5811 5.36328 74.7432 5.36328C 73.9111 5.36328 73.3047 5.67676 72.9238 6.30371C 72.543 6.93066 72.3467 7.89453 72.335 9.19531L 72.335 11.7969C 72.335 13.1797 72.5342 14.2021 72.9326 14.8643C 73.3369 15.5205 73.9463 15.8486 74.7607 15.8486C 75.5635 15.8486 76.1582 15.5381 76.5449 14.917C 76.9375 14.2959 77.1426 13.3174 77.1602 11.9814L 77.1602 9.31836ZM 24.3203 34.6602L 18.959 34.6602L 17.7549 38L 16.0146 38L 20.9014 25.2031L 22.3779 25.2031L 27.2734 38L 25.542 38L 24.3203 34.6602ZM 19.4688 33.2715L 23.8193 33.2715L 21.6396 27.2861L 19.4688 33.2715ZM 40.6416 30.8457L 33.3115 30.8457L 33.3115 29.4307L 40.6416 29.4307L 40.6416 30.8457ZM 40.6416 34.4932L 33.3115 34.4932L 33.3115 33.0869L 40.6416 33.0869L 40.6416 34.4932ZM 48.8418 32.2871L 43.0322 30.0107L 43.0322 28.3408L 50.5381 31.6631L 50.5381 32.9463L 43.0322 36.2773L 43.0322 34.5898L 48.8418 32.2871ZM 58.8613 34.3965C 58.873 33.6992 58.9521 33.1484 59.0986 32.7441C 59.2451 32.3398 59.5439 31.8916 59.9951 31.3994L 61.1465 30.2129C 61.6387 29.6562 61.8848 29.0586 61.8848 28.4199C 61.8848 27.8047 61.7236 27.3242 61.4014 26.9785C 61.0791 26.627 60.6104 26.4512 59.9951 26.4512C 59.3975 26.4512 58.917 26.6094 58.5537 26.9258C 58.1904 27.2422 58.0088 27.667 58.0088 28.2002L 56.3828 28.2002C 56.3945 27.251 56.7314 26.4863 57.3936 25.9062C 58.0615 25.3203 58.9287 25.0273 59.9951 25.0273C 61.1025 25.0273 61.9639 25.3262 62.5791 25.9238C 63.2002 26.5156 63.5107 27.3301 63.5107 28.3672C 63.5107 29.3926 63.0361 30.4033 62.0869 31.3994L 61.1289 32.3486C 60.7012 32.8232 60.4873 33.5059 60.4873 34.3965L 58.8613 34.3965ZM 58.791 37.1826C 58.791 36.9189 58.8701 36.6992 59.0283 36.5234C 59.1924 36.3418 59.4326 36.251 59.749 36.251C 60.0654 36.251 60.3057 36.3418 60.4697 36.5234C 60.6338 36.6992 60.7158 36.9189 60.7158 37.1826C 60.7158 37.4463 60.6338 37.666 60.4697 37.8418C 60.3057 38.0117 60.0654 38.0967 59.749 38.0967C 59.4326 38.0967 59.1924 38.0117 59.0283 37.8418C 58.8701 37.666 58.791 37.4463 58.791 37.1826ZM 23.0547 53.3486L 17.6846 53.3486L 17.6846 59L 15.9971 59L 15.9971 46.2031L 23.9248 46.2031L 23.9248 47.5918L 17.6846 47.5918L 17.6846 51.9688L 23.0547 51.9688L 23.0547 53.3486ZM 31.3691 58.0596C 30.7363 58.8037 29.8076 59.1758 28.583 59.1758C 27.5693 59.1758 26.7959 58.8828 26.2627 58.2969C 25.7354 57.7051 25.4688 56.832 25.4629 55.6777L 25.4629 49.4902L 27.0889 49.4902L 27.0889 55.6338C 27.0889 57.0752 27.6748 57.7959 28.8467 57.7959C 30.0889 57.7959 30.915 57.333 31.3252 56.4072L 31.3252 49.4902L 32.9512 49.4902L 32.9512 59L 31.4043 59L 31.3691 58.0596ZM 37.6357 47.1875L 37.6357 49.4902L 39.4111 49.4902L 39.4111 50.7471L 37.6357 50.7471L 37.6357 56.6445C 37.6357 57.0254 37.7148 57.3125 37.873 57.5059C 38.0312 57.6934 38.3008 57.7871 38.6816 57.7871C 38.8691 57.7871 39.127 57.752 39.4551 57.6816L 39.4551 59C 39.0273 59.1172 38.6113 59.1758 38.207 59.1758C 37.4805 59.1758 36.9326 58.9561 36.5635 58.5166C 36.1943 58.0771 36.0098 57.4531 36.0098 56.6445L 36.0098 50.7471L 34.2783 50.7471L 34.2783 49.4902L 36.0098 49.4902L 36.0098 47.1875L 37.6357 47.1875ZM 47.1895 58.0596C 46.5566 58.8037 45.6279 59.1758 44.4033 59.1758C 43.3896 59.1758 42.6162 58.8828 42.083 58.2969C 41.5557 57.7051 41.2891 56.832 41.2832 55.6777L 41.2832 49.4902L 42.9092 49.4902L 42.9092 55.6338C 42.9092 57.0752 43.4951 57.7959 44.667 57.7959C 45.9092 57.7959 46.7354 57.333 47.1455 56.4072L 47.1455 49.4902L 48.7715 49.4902L 48.7715 59L 47.2246 59L 47.1895 58.0596ZM 55.8467 50.9492C 55.6006 50.9082 55.334 50.8877 55.0469 50.8877C 53.9805 50.8877 53.2568 51.3418 52.876 52.25L 52.876 59L 51.25 59L 51.25 49.4902L 52.832 49.4902L 52.8584 50.5889C 53.3916 49.7393 54.1475 49.3145 55.126 49.3145C 55.4424 49.3145 55.6826 49.3555 55.8467 49.4375L 55.8467 50.9492ZM 61.1201 59.1758C 59.8311 59.1758 58.7822 58.7539 57.9736 57.9102C 57.165 57.0605 56.7607 55.9268 56.7607 54.5088L 56.7607 54.21C 56.7607 53.2666 56.9395 52.4258 57.2969 51.6875C 57.6602 50.9434 58.1641 50.3633 58.8086 49.9473C 59.459 49.5254 60.1621 49.3145 60.918 49.3145C 62.1543 49.3145 63.1152 49.7217 63.8008 50.5361C 64.4863 51.3506 64.8291 52.5166 64.8291 54.0342L 64.8291 54.7109L 58.3867 54.7109C 58.4102 55.6484 58.6826 56.4072 59.2041 56.9873C 59.7314 57.5615 60.3994 57.8486 61.208 57.8486C 61.7822 57.8486 62.2686 57.7314 62.667 57.4971C 63.0654 57.2627 63.4141 56.9521 63.7129 56.5654L 64.7061 57.3389C 63.9092 58.5635 62.7139 59.1758 61.1201 59.1758ZM 60.918 50.6504C 60.2617 50.6504 59.7109 50.8906 59.2656 51.3711C 58.8203 51.8457 58.5449 52.5137 58.4395 53.375L 63.2031 53.375L 63.2031 53.252C 63.1562 52.4258 62.9336 51.7871 62.5352 51.3359C 62.1367 50.8789 61.5977 50.6504 60.918 50.6504Z"/>
<path id="path3_fill" d="M 407 140.5C 407 218.096 315.89 281 203.5 281C 91.1101 281 0 218.096 0 140.5C 0 62.904 91.1101 0 203.5 0C 315.89 0 407 62.904 407 140.5Z"/>
<path id="path4_fill" d="M 5.25586 11.2959C 3.80859 10.8799 2.75391 10.3701 2.0918 9.7666C 1.43555 9.15723 1.10742 8.40723 1.10742 7.5166C 1.10742 6.50879 1.50879 5.67676 2.31152 5.02051C 3.12012 4.3584 4.16895 4.02734 5.45801 4.02734C 6.33691 4.02734 7.11914 4.19727 7.80469 4.53711C 8.49609 4.87695 9.0293 5.3457 9.4043 5.94336C 9.78516 6.54102 9.97559 7.19434 9.97559 7.90332L 8.2793 7.90332C 8.2793 7.12988 8.0332 6.52344 7.54102 6.08398C 7.04883 5.63867 6.35449 5.41602 5.45801 5.41602C 4.62598 5.41602 3.97559 5.60059 3.50684 5.96973C 3.04395 6.33301 2.8125 6.83984 2.8125 7.49023C 2.8125 8.01172 3.03223 8.4541 3.47168 8.81738C 3.91699 9.1748 4.66992 9.50293 5.73047 9.80176C 6.79688 10.1006 7.62891 10.4316 8.22656 10.7949C 8.83008 11.1523 9.27539 11.5713 9.5625 12.0518C 9.85547 12.5322 10.002 13.0977 10.002 13.748C 10.002 14.7852 9.59766 15.6172 8.78906 16.2441C 7.98047 16.8652 6.89941 17.1758 5.5459 17.1758C 4.66699 17.1758 3.84668 17.0088 3.08496 16.6748C 2.32324 16.335 1.73438 15.8721 1.31836 15.2861C 0.908203 14.7002 0.703125 14.0352 0.703125 13.291L 2.39941 13.291C 2.39941 14.0645 2.68359 14.6768 3.25195 15.1279C 3.82617 15.5732 4.59082 15.7959 5.5459 15.7959C 6.43652 15.7959 7.11914 15.6143 7.59375 15.251C 8.06836 14.8877 8.30566 14.3926 8.30566 13.7656C 8.30566 13.1387 8.08594 12.6553 7.64648 12.3154C 7.20703 11.9697 6.41016 11.6299 5.25586 11.2959ZM 15.8643 17.1758C 14.5752 17.1758 13.5264 16.7539 12.7178 15.9102C 11.9092 15.0605 11.5049 13.9268 11.5049 12.5088L 11.5049 12.21C 11.5049 11.2666 11.6836 10.4258 12.041 9.6875C 12.4043 8.94336 12.9082 8.36328 13.5527 7.94727C 14.2031 7.52539 14.9062 7.31445 15.6621 7.31445C 16.8984 7.31445 17.8594 7.72168 18.5449 8.53613C 19.2305 9.35059 19.5732 10.5166 19.5732 12.0342L 19.5732 12.7109L 13.1309 12.7109C 13.1543 13.6484 13.4268 14.4072 13.9482 14.9873C 14.4756 15.5615 15.1436 15.8486 15.9521 15.8486C 16.5264 15.8486 17.0127 15.7314 17.4111 15.4971C 17.8096 15.2627 18.1582 14.9521 18.457 14.5654L 19.4502 15.3389C 18.6533 16.5635 17.458 17.1758 15.8643 17.1758ZM 15.6621 8.65039C 15.0059 8.65039 14.4551 8.89062 14.0098 9.37109C 13.5645 9.8457 13.2891 10.5137 13.1836 11.375L 17.9473 11.375L 17.9473 11.252C 17.9004 10.4258 17.6777 9.78711 17.2793 9.33594C 16.8809 8.87891 16.3418 8.65039 15.6621 8.65039ZM 23.6689 5.1875L 23.6689 7.49023L 25.4443 7.49023L 25.4443 8.74707L 23.6689 8.74707L 23.6689 14.6445C 23.6689 15.0254 23.748 15.3125 23.9062 15.5059C 24.0645 15.6934 24.334 15.7871 24.7148 15.7871C 24.9023 15.7871 25.1602 15.752 25.4883 15.6816L 25.4883 17C 25.0605 17.1172 24.6445 17.1758 24.2402 17.1758C 23.5137 17.1758 22.9658 16.9561 22.5967 16.5166C 22.2275 16.0771 22.043 15.4531 22.043 14.6445L 22.043 8.74707L 20.3115 8.74707L 20.3115 7.49023L 22.043 7.49023L 22.043 5.1875L 23.6689 5.1875Z"/>
<path id="path5_fill" d="M 8.78613 11.085L 3.24023 11.085L 3.24023 15.6201L 9.68262 15.6201L 9.68262 17L 1.55273 17L 1.55273 4.20312L 9.59473 4.20312L 9.59473 5.5918L 3.24023 5.5918L 3.24023 9.70508L 8.78613 9.70508L 8.78613 11.085ZM 13.2949 17L 11.6689 17L 11.6689 7.49023L 13.2949 7.49023L 13.2949 17ZM 11.5371 4.96777C 11.5371 4.7041 11.6162 4.48145 11.7744 4.2998C 11.9385 4.11816 12.1787 4.02734 12.4951 4.02734C 12.8115 4.02734 13.0518 4.11816 13.2158 4.2998C 13.3799 4.48145 13.4619 4.7041 13.4619 4.96777C 13.4619 5.23145 13.3799 5.45117 13.2158 5.62695C 13.0518 5.80273 12.8115 5.89062 12.4951 5.89062C 12.1787 5.89062 11.9385 5.80273 11.7744 5.62695C 11.6162 5.45117 11.5371 5.23145 11.5371 4.96777ZM 18.1113 5.1875L 18.1113 7.49023L 19.8867 7.49023L 19.8867 8.74707L 18.1113 8.74707L 18.1113 14.6445C 18.1113 15.0254 18.1904 15.3125 18.3486 15.5059C 18.5068 15.6934 18.7764 15.7871 19.1572 15.7871C 19.3447 15.7871 19.6025 15.752 19.9307 15.6816L 19.9307 17C 19.5029 17.1172 19.0869 17.1758 18.6826 17.1758C 17.9561 17.1758 17.4082 16.9561 17.0391 16.5166C 16.6699 16.0771 16.4854 15.4531 16.4854 14.6445L 16.4854 8.74707L 14.7539 8.74707L 14.7539 7.49023L 16.4854 7.49023L 16.4854 5.1875L 18.1113 5.1875ZM 23.4199 8.6416C 24.1406 7.75684 25.0781 7.31445 26.2324 7.31445C 28.2422 7.31445 29.2559 8.44824 29.2734 10.7158L 29.2734 17L 27.6475 17L 27.6475 10.707C 27.6416 10.0215 27.4834 9.51465 27.1729 9.18652C 26.8682 8.8584 26.3906 8.69434 25.7402 8.69434C 25.2129 8.69434 24.75 8.83496 24.3516 9.11621C 23.9531 9.39746 23.6426 9.7666 23.4199 10.2236L 23.4199 17L 21.7939 17L 21.7939 3.5L 23.4199 3.5L 23.4199 8.6416ZM 35.6543 17.1758C 34.3652 17.1758 33.3164 16.7539 32.5078 15.9102C 31.6992 15.0605 31.2949 13.9268 31.2949 12.5088L 31.2949 12.21C 31.2949 11.2666 31.4736 10.4258 31.8311 9.6875C 32.1943 8.94336 32.6982 8.36328 33.3428 7.94727C 33.9932 7.52539 34.6963 7.31445 35.4521 7.31445C 36.6885 7.31445 37.6494 7.72168 38.335 8.53613C 39.0205 9.35059 39.3633 10.5166 39.3633 12.0342L 39.3633 12.7109L 32.9209 12.7109C 32.9443 13.6484 33.2168 14.4072 33.7383 14.9873C 34.2656 15.5615 34.9336 15.8486 35.7422 15.8486C 36.3164 15.8486 36.8027 15.7314 37.2012 15.4971C 37.5996 15.2627 37.9482 14.9521 38.2471 14.5654L 39.2402 15.3389C 38.4434 16.5635 37.248 17.1758 35.6543 17.1758ZM 35.4521 8.65039C 34.7959 8.65039 34.2451 8.89062 33.7998 9.37109C 33.3545 9.8457 33.0791 10.5137 32.9736 11.375L 37.7373 11.375L 37.7373 11.252C 37.6904 10.4258 37.4678 9.78711 37.0693 9.33594C 36.6709 8.87891 36.1318 8.65039 35.4521 8.65039ZM 45.8496 8.94922C 45.6035 8.9082 45.3369 8.8877 45.0498 8.8877C 43.9834 8.8877 43.2598 9.3418 42.8789 10.25L 42.8789 17L 41.2529 17L 41.2529 7.49023L 42.835 7.49023L 42.8613 8.58887C 43.3945 7.73926 44.1504 7.31445 45.1289 7.31445C 45.4453 7.31445 45.6855 7.35547 45.8496 7.4375L 45.8496 8.94922ZM 50.7188 3.71094L 49.04 3.71094L 49.04 18.4062L 50.7188 18.4062L 50.7188 19.7422L 47.4053 19.7422L 47.4053 2.375L 50.7188 2.375L 50.7188 3.71094ZM 59.4551 13.6602L 54.0938 13.6602L 52.8896 17L 51.1494 17L 56.0361 4.20312L 57.5127 4.20312L 62.4082 17L 60.6768 17L 59.4551 13.6602ZM 54.6035 12.2715L 58.9541 12.2715L 56.7744 6.28613L 54.6035 12.2715ZM 63.8232 19.5488L 62.9004 18.916C 63.4512 18.1484 63.7383 17.3574 63.7617 16.543L 63.7617 15.0752L 65.3525 15.0752L 65.3525 16.3496C 65.3525 16.9414 65.2061 17.5332 64.9131 18.125C 64.626 18.7168 64.2627 19.1914 63.8232 19.5488ZM 73.7812 13.3965C 73.793 12.6992 73.8721 12.1484 74.0186 11.7441C 74.165 11.3398 74.4639 10.8916 74.915 10.3994L 76.0664 9.21289C 76.5586 8.65625 76.8047 8.05859 76.8047 7.41992C 76.8047 6.80469 76.6436 6.32422 76.3213 5.97852C 75.999 5.62695 75.5303 5.45117 74.915 5.45117C 74.3174 5.45117 73.8369 5.60938 73.4736 5.92578C 73.1104 6.24219 72.9287 6.66699 72.9287 7.2002L 71.3027 7.2002C 71.3145 6.25098 71.6514 5.48633 72.3135 4.90625C 72.9814 4.32031 73.8486 4.02734 74.915 4.02734C 76.0225 4.02734 76.8838 4.32617 77.499 4.92383C 78.1201 5.51562 78.4307 6.33008 78.4307 7.36719C 78.4307 8.39258 77.9561 9.40332 77.0068 10.3994L 76.0488 11.3486C 75.6211 11.8232 75.4072 12.5059 75.4072 13.3965L 73.7812 13.3965ZM 73.7109 16.1826C 73.7109 15.9189 73.79 15.6992 73.9482 15.5234C 74.1123 15.3418 74.3525 15.251 74.6689 15.251C 74.9854 15.251 75.2256 15.3418 75.3896 15.5234C 75.5537 15.6992 75.6357 15.9189 75.6357 16.1826C 75.6357 16.4463 75.5537 16.666 75.3896 16.8418C 75.2256 17.0117 74.9854 17.0967 74.6689 17.0967C 74.3525 17.0967 74.1123 17.0117 73.9482 16.8418C 73.79 16.666 73.7109 16.4463 73.7109 16.1826ZM 79.2305 2.375L 82.5527 2.375L 82.5527 19.7422L 79.2305 19.7422L 79.2305 18.4062L 80.9268 18.4062L 80.9268 3.71094L 79.2305 3.71094L 79.2305 2.375ZM 30.5654 36.6201L 36.6299 36.6201L 36.6299 38L 28.8691 38L 28.8691 25.2031L 30.5654 25.2031L 30.5654 36.6201ZM 40.0664 38L 38.4404 38L 38.4404 28.4902L 40.0664 28.4902L 40.0664 38ZM 38.3086 25.9678C 38.3086 25.7041 38.3877 25.4814 38.5459 25.2998C 38.71 25.1182 38.9502 25.0273 39.2666 25.0273C 39.583 25.0273 39.8232 25.1182 39.9873 25.2998C 40.1514 25.4814 40.2334 25.7041 40.2334 25.9678C 40.2334 26.2314 40.1514 26.4512 39.9873 26.627C 39.8232 26.8027 39.583 26.8906 39.2666 26.8906C 38.9502 26.8906 38.71 26.8027 38.5459 26.627C 38.3877 26.4512 38.3086 26.2314 38.3086 25.9678ZM 48.2139 35.4775C 48.2139 35.0381 48.0469 34.6982 47.7129 34.458C 47.3848 34.2119 46.8076 34.001 45.9814 33.8252C 45.1611 33.6494 44.5078 33.4385 44.0215 33.1924C 43.541 32.9463 43.1836 32.6533 42.9492 32.3135C 42.7207 31.9736 42.6064 31.5693 42.6064 31.1006C 42.6064 30.3213 42.9346 29.6621 43.5908 29.123C 44.2529 28.584 45.0967 28.3145 46.1221 28.3145C 47.2002 28.3145 48.0732 28.5928 48.7412 29.1494C 49.415 29.7061 49.752 30.418 49.752 31.2852L 48.1172 31.2852C 48.1172 30.8398 47.9268 30.4561 47.5459 30.1338C 47.1709 29.8115 46.6963 29.6504 46.1221 29.6504C 45.5303 29.6504 45.0674 29.7793 44.7334 30.0371C 44.3994 30.2949 44.2324 30.6318 44.2324 31.0479C 44.2324 31.4404 44.3877 31.7363 44.6982 31.9355C 45.0088 32.1348 45.5684 32.3252 46.377 32.5068C 47.1914 32.6885 47.8506 32.9053 48.3545 33.1572C 48.8584 33.4092 49.2305 33.7139 49.4707 34.0713C 49.7168 34.4229 49.8398 34.8535 49.8398 35.3633C 49.8398 36.2129 49.5 36.8955 48.8203 37.4111C 48.1406 37.9209 47.2588 38.1758 46.1748 38.1758C 45.4131 38.1758 44.7393 38.041 44.1533 37.7715C 43.5674 37.502 43.1074 37.127 42.7734 36.6465C 42.4453 36.1602 42.2812 35.6357 42.2812 35.0732L 43.9072 35.0732C 43.9365 35.6182 44.1533 36.0518 44.5576 36.374C 44.9678 36.6904 45.5068 36.8486 46.1748 36.8486C 46.79 36.8486 47.2822 36.7256 47.6514 36.4795C 48.0264 36.2275 48.2139 35.8936 48.2139 35.4775ZM 54.1641 26.1875L 54.1641 28.4902L 55.9395 28.4902L 55.9395 29.7471L 54.1641 29.7471L 54.1641 35.6445C 54.1641 36.0254 54.2432 36.3125 54.4014 36.5059C 54.5596 36.6934 54.8291 36.7871 55.21 36.7871C 55.3975 36.7871 55.6553 36.752 55.9834 36.6816L 55.9834 38C 55.5557 38.1172 55.1396 38.1758 54.7354 38.1758C 54.0088 38.1758 53.4609 37.9561 53.0918 37.5166C 52.7227 37.0771 52.5381 36.4531 52.5381 35.6445L 52.5381 29.7471L 50.8066 29.7471L 50.8066 28.4902L 52.5381 28.4902L 52.5381 26.1875L 54.1641 26.1875ZM 8.95312 46.2031L 13.1367 56.6445L 17.3203 46.2031L 19.5088 46.2031L 19.5088 59L 17.8213 59L 17.8213 54.0166L 17.9795 48.6377L 13.7783 59L 12.4863 59L 8.29395 48.6641L 8.46094 54.0166L 8.46094 59L 6.77344 59L 6.77344 46.2031L 8.95312 46.2031ZM 28.1045 59C 28.0107 58.8125 27.9346 58.4785 27.876 57.998C 27.1201 58.7832 26.2178 59.1758 25.1689 59.1758C 24.2314 59.1758 23.4609 58.9121 22.8574 58.3848C 22.2598 57.8516 21.9609 57.1777 21.9609 56.3633C 21.9609 55.373 22.3359 54.6055 23.0859 54.0605C 23.8418 53.5098 24.9023 53.2344 26.2676 53.2344L 27.8496 53.2344L 27.8496 52.4873C 27.8496 51.9189 27.6797 51.4678 27.3398 51.1338C 27 50.7939 26.499 50.624 25.8369 50.624C 25.2568 50.624 24.7705 50.7705 24.3779 51.0635C 23.9854 51.3564 23.7891 51.7109 23.7891 52.127L 22.1543 52.127C 22.1543 51.6523 22.3213 51.1953 22.6553 50.7559C 22.9951 50.3105 23.4521 49.959 24.0264 49.7012C 24.6064 49.4434 25.2422 49.3145 25.9336 49.3145C 27.0293 49.3145 27.8877 49.5898 28.5088 50.1406C 29.1299 50.6855 29.4521 51.4385 29.4756 52.3994L 29.4756 56.7764C 29.4756 57.6494 29.5869 58.3438 29.8096 58.8594L 29.8096 59L 28.1045 59ZM 25.4062 57.7607C 25.916 57.7607 26.3994 57.6289 26.8564 57.3652C 27.3135 57.1016 27.6445 56.7588 27.8496 56.3369L 27.8496 54.3857L 26.5752 54.3857C 24.583 54.3857 23.5869 54.9688 23.5869 56.1348C 23.5869 56.6445 23.7568 57.043 24.0967 57.3301C 24.4365 57.6172 24.873 57.7607 25.4062 57.7607ZM 40.0576 54.3506C 40.0576 55.7979 39.7266 56.9639 39.0645 57.8486C 38.4023 58.7334 37.5059 59.1758 36.375 59.1758C 35.2207 59.1758 34.3125 58.8096 33.6504 58.0771L 33.6504 62.6562L 32.0244 62.6562L 32.0244 49.4902L 33.5098 49.4902L 33.5889 50.5449C 34.251 49.7246 35.1709 49.3145 36.3486 49.3145C 37.4912 49.3145 38.3936 49.7451 39.0557 50.6064C 39.7236 51.4678 40.0576 52.666 40.0576 54.2012L 40.0576 54.3506ZM 38.4316 54.166C 38.4316 53.0938 38.2031 52.2471 37.7461 51.626C 37.2891 51.0049 36.6621 50.6943 35.8652 50.6943C 34.8809 50.6943 34.1426 51.1309 33.6504 52.0039L 33.6504 56.5479C 34.1367 57.415 34.8809 57.8486 35.8828 57.8486C 36.6621 57.8486 37.2803 57.541 37.7373 56.9258C 38.2002 56.3047 38.4316 55.3848 38.4316 54.166ZM 45.498 45.7109L 43.8193 45.7109L 43.8193 60.4062L 45.498 60.4062L 45.498 61.7422L 42.1846 61.7422L 42.1846 44.375L 45.498 44.375L 45.498 45.7109ZM 54.2344 55.6602L 48.873 55.6602L 47.6689 59L 45.9287 59L 50.8154 46.2031L 52.292 46.2031L 57.1875 59L 55.4561 59L 54.2344 55.6602ZM 49.3828 54.2715L 53.7334 54.2715L 51.5537 48.2861L 49.3828 54.2715ZM 58.6025 61.5488L 57.6797 60.916C 58.2305 60.1484 58.5176 59.3574 58.541 58.543L 58.541 57.0752L 60.1318 57.0752L 60.1318 58.3496C 60.1318 58.9414 59.9854 59.5332 59.6924 60.125C 59.4053 60.7168 59.042 61.1914 58.6025 61.5488ZM 68.5605 55.3965C 68.5723 54.6992 68.6514 54.1484 68.7979 53.7441C 68.9443 53.3398 69.2432 52.8916 69.6943 52.3994L 70.8457 51.2129C 71.3379 50.6562 71.584 50.0586 71.584 49.4199C 71.584 48.8047 71.4229 48.3242 71.1006 47.9785C 70.7783 47.627 70.3096 47.4512 69.6943 47.4512C 69.0967 47.4512 68.6162 47.6094 68.2529 47.9258C 67.8896 48.2422 67.708 48.667 67.708 49.2002L 66.082 49.2002C 66.0938 48.251 66.4307 47.4863 67.0928 46.9062C 67.7607 46.3203 68.6279 46.0273 69.6943 46.0273C 70.8018 46.0273 71.6631 46.3262 72.2783 46.9238C 72.8994 47.5156 73.21 48.3301 73.21 49.3672C 73.21 50.3926 72.7354 51.4033 71.7861 52.3994L 70.8281 53.3486C 70.4004 53.8232 70.1865 54.5059 70.1865 55.3965L 68.5605 55.3965ZM 68.4902 58.1826C 68.4902 57.9189 68.5693 57.6992 68.7275 57.5234C 68.8916 57.3418 69.1318 57.251 69.4482 57.251C 69.7646 57.251 70.0049 57.3418 70.1689 57.5234C 70.333 57.6992 70.415 57.9189 70.415 58.1826C 70.415 58.4463 70.333 58.666 70.1689 58.8418C 70.0049 59.0117 69.7646 59.0967 69.4482 59.0967C 69.1318 59.0967 68.8916 59.0117 68.7275 58.8418C 68.5693 58.666 68.4902 58.4463 68.4902 58.1826ZM 74.0098 44.375L 77.332 44.375L 77.332 61.7422L 74.0098 61.7422L 74.0098 60.4062L 75.7061 60.4062L 75.7061 45.7109L 74.0098 45.7109L 74.0098 44.375ZM 26.8564 74.0146C 26.8564 75.2686 26.6455 76.3643 26.2236 77.3018C 25.8018 78.2334 25.2041 78.9453 24.4307 79.4375C 23.6572 79.9297 22.7549 80.1758 21.7236 80.1758C 20.7158 80.1758 19.8223 79.9297 19.043 79.4375C 18.2637 78.9395 17.6572 78.2334 17.2236 77.3193C 16.7959 76.3994 16.5762 75.3359 16.5645 74.1289L 16.5645 73.2061C 16.5645 71.9756 16.7783 70.8887 17.2061 69.9453C 17.6338 69.002 18.2373 68.2812 19.0166 67.7832C 19.8018 67.2793 20.6982 67.0273 21.7061 67.0273C 22.7314 67.0273 23.6338 67.2764 24.4131 67.7744C 25.1982 68.2666 25.8018 68.9844 26.2236 69.9277C 26.6455 70.8652 26.8564 71.958 26.8564 73.2061L 26.8564 74.0146ZM 25.1777 73.1885C 25.1777 71.6709 24.873 70.5078 24.2637 69.6992C 23.6543 68.8848 22.8018 68.4775 21.7061 68.4775C 20.6396 68.4775 19.7988 68.8848 19.1836 69.6992C 18.5742 70.5078 18.2607 71.6328 18.2432 73.0742L 18.2432 74.0146C 18.2432 75.4854 18.5508 76.6426 19.166 77.4863C 19.7871 78.3242 20.6396 78.7432 21.7236 78.7432C 22.8135 78.7432 23.6572 78.3477 24.2549 77.5566C 24.8525 76.7598 25.1602 75.6201 25.1777 74.1377L 25.1777 73.1885ZM 37.166 75.3506C 37.166 76.7979 36.835 77.9639 36.1729 78.8486C 35.5107 79.7334 34.6143 80.1758 33.4834 80.1758C 32.3291 80.1758 31.4209 79.8096 30.7588 79.0771L 30.7588 83.6562L 29.1328 83.6562L 29.1328 70.4902L 30.6182 70.4902L 30.6973 71.5449C 31.3594 70.7246 32.2793 70.3145 33.457 70.3145C 34.5996 70.3145 35.502 70.7451 36.1641 71.6064C 36.832 72.4678 37.166 73.666 37.166 75.2012L 37.166 75.3506ZM 35.54 75.166C 35.54 74.0938 35.3115 73.2471 34.8545 72.626C 34.3975 72.0049 33.7705 71.6943 32.9736 71.6943C 31.9893 71.6943 31.251 72.1309 30.7588 73.0039L 30.7588 77.5479C 31.2451 78.415 31.9893 78.8486 32.9912 78.8486C 33.7705 78.8486 34.3887 78.541 34.8457 77.9258C 35.3086 77.3047 35.54 76.3848 35.54 75.166ZM 41.4463 68.1875L 41.4463 70.4902L 43.2217 70.4902L 43.2217 71.7471L 41.4463 71.7471L 41.4463 77.6445C 41.4463 78.0254 41.5254 78.3125 41.6836 78.5059C 41.8418 78.6934 42.1113 78.7871 42.4922 78.7871C 42.6797 78.7871 42.9375 78.752 43.2656 78.6816L 43.2656 80C 42.8379 80.1172 42.4219 80.1758 42.0176 80.1758C 41.291 80.1758 40.7432 79.9561 40.374 79.5166C 40.0049 79.0771 39.8203 78.4531 39.8203 77.6445L 39.8203 71.7471L 38.0889 71.7471L 38.0889 70.4902L 39.8203 70.4902L 39.8203 68.1875L 41.4463 68.1875ZM 46.8955 80L 45.2695 80L 45.2695 70.4902L 46.8955 70.4902L 46.8955 80ZM 45.1377 67.9678C 45.1377 67.7041 45.2168 67.4814 45.375 67.2998C 45.5391 67.1182 45.7793 67.0273 46.0957 67.0273C 46.4121 67.0273 46.6523 67.1182 46.8164 67.2998C 46.9805 67.4814 47.0625 67.7041 47.0625 67.9678C 47.0625 68.2314 46.9805 68.4512 46.8164 68.627C 46.6523 68.8027 46.4121 68.8906 46.0957 68.8906C 45.7793 68.8906 45.5391 68.8027 45.375 68.627C 45.2168 68.4512 45.1377 68.2314 45.1377 67.9678ZM 49.0752 75.1572C 49.0752 74.2256 49.2568 73.3877 49.6201 72.6436C 49.9893 71.8994 50.499 71.3252 51.1494 70.9209C 51.8057 70.5166 52.5527 70.3145 53.3906 70.3145C 54.6855 70.3145 55.7314 70.7627 56.5283 71.6592C 57.3311 72.5557 57.7324 73.748 57.7324 75.2363L 57.7324 75.3506C 57.7324 76.2764 57.5537 77.1084 57.1963 77.8467C 56.8447 78.5791 56.3379 79.1504 55.6758 79.5605C 55.0195 79.9707 54.2637 80.1758 53.4082 80.1758C 52.1191 80.1758 51.0732 79.7275 50.2705 78.8311C 49.4736 77.9346 49.0752 76.748 49.0752 75.2715L 49.0752 75.1572ZM 50.71 75.3506C 50.71 76.4053 50.9531 77.252 51.4395 77.8906C 51.9316 78.5293 52.5879 78.8486 53.4082 78.8486C 54.2344 78.8486 54.8906 78.5264 55.377 77.8818C 55.8633 77.2314 56.1064 76.3232 56.1064 75.1572C 56.1064 74.1143 55.8574 73.2705 55.3594 72.626C 54.8672 71.9756 54.2109 71.6504 53.3906 71.6504C 52.5879 71.6504 51.9404 71.9697 51.4482 72.6084C 50.9561 73.2471 50.71 74.1611 50.71 75.3506ZM 61.3096 70.4902L 61.3623 71.6855C 62.0889 70.7715 63.0381 70.3145 64.21 70.3145C 66.2197 70.3145 67.2334 71.4482 67.251 73.7158L 67.251 80L 65.625 80L 65.625 73.707C 65.6191 73.0215 65.4609 72.5146 65.1504 72.1865C 64.8457 71.8584 64.3682 71.6943 63.7178 71.6943C 63.1904 71.6943 62.7275 71.835 62.3291 72.1162C 61.9307 72.3975 61.6201 72.7666 61.3975 73.2236L 61.3975 80L 59.7715 80L 59.7715 70.4902L 61.3096 70.4902ZM 18.4453 95.2959C 16.998 94.8799 15.9434 94.3701 15.2812 93.7666C 14.625 93.1572 14.2969 92.4072 14.2969 91.5166C 14.2969 90.5088 14.6982 89.6768 15.501 89.0205C 16.3096 88.3584 17.3584 88.0273 18.6475 88.0273C 19.5264 88.0273 20.3086 88.1973 20.9941 88.5371C 21.6855 88.877 22.2188 89.3457 22.5938 89.9434C 22.9746 90.541 23.165 91.1943 23.165 91.9033L 21.4688 91.9033C 21.4688 91.1299 21.2227 90.5234 20.7305 90.084C 20.2383 89.6387 19.5439 89.416 18.6475 89.416C 17.8154 89.416 17.165 89.6006 16.6963 89.9697C 16.2334 90.333 16.002 90.8398 16.002 91.4902C 16.002 92.0117 16.2217 92.4541 16.6611 92.8174C 17.1064 93.1748 17.8594 93.5029 18.9199 93.8018C 19.9863 94.1006 20.8184 94.4316 21.416 94.7949C 22.0195 95.1523 22.4648 95.5713 22.752 96.0518C 23.0449 96.5322 23.1914 97.0977 23.1914 97.748C 23.1914 98.7852 22.7871 99.6172 21.9785 100.244C 21.1699 100.865 20.0889 101.176 18.7354 101.176C 17.8564 101.176 17.0361 101.009 16.2744 100.675C 15.5127 100.335 14.9238 99.8721 14.5078 99.2861C 14.0977 98.7002 13.8926 98.0352 13.8926 97.291L 15.5889 97.291C 15.5889 98.0645 15.873 98.6768 16.4414 99.1279C 17.0156 99.5732 17.7803 99.7959 18.7354 99.7959C 19.626 99.7959 20.3086 99.6143 20.7832 99.251C 21.2578 98.8877 21.4951 98.3926 21.4951 97.7656C 21.4951 97.1387 21.2754 96.6553 20.8359 96.3154C 20.3965 95.9697 19.5996 95.6299 18.4453 95.2959ZM 27.3135 89.1875L 27.3135 91.4902L 29.0889 91.4902L 29.0889 92.7471L 27.3135 92.7471L 27.3135 98.6445C 27.3135 99.0254 27.3926 99.3125 27.5508 99.5059C 27.709 99.6934 27.9785 99.7871 28.3594 99.7871C 28.5469 99.7871 28.8047 99.752 29.1328 99.6816L 29.1328 101C 28.7051 101.117 28.2891 101.176 27.8848 101.176C 27.1582 101.176 26.6104 100.956 26.2412 100.517C 25.8721 100.077 25.6875 99.4531 25.6875 98.6445L 25.6875 92.7471L 23.9561 92.7471L 23.9561 91.4902L 25.6875 91.4902L 25.6875 89.1875L 27.3135 89.1875ZM 35.5928 92.9492C 35.3467 92.9082 35.0801 92.8877 34.793 92.8877C 33.7266 92.8877 33.0029 93.3418 32.6221 94.25L 32.6221 101L 30.9961 101L 30.9961 91.4902L 32.5781 91.4902L 32.6045 92.5889C 33.1377 91.7393 33.8936 91.3145 34.8721 91.3145C 35.1885 91.3145 35.4287 91.3555 35.5928 91.4375L 35.5928 92.9492ZM 40.8662 101.176C 39.5771 101.176 38.5283 100.754 37.7197 99.9102C 36.9111 99.0605 36.5068 97.9268 36.5068 96.5088L 36.5068 96.21C 36.5068 95.2666 36.6855 94.4258 37.043 93.6875C 37.4062 92.9434 37.9102 92.3633 38.5547 91.9473C 39.2051 91.5254 39.9082 91.3145 40.6641 91.3145C 41.9004 91.3145 42.8613 91.7217 43.5469 92.5361C 44.2324 93.3506 44.5752 94.5166 44.5752 96.0342L 44.5752 96.7109L 38.1328 96.7109C 38.1562 97.6484 38.4287 98.4072 38.9502 98.9873C 39.4775 99.5615 40.1455 99.8486 40.9541 99.8486C 41.5283 99.8486 42.0146 99.7314 42.4131 99.4971C 42.8115 99.2627 43.1602 98.9521 43.459 98.5654L 44.4521 99.3389C 43.6553 100.563 42.46 101.176 40.8662 101.176ZM 40.6641 92.6504C 40.0078 92.6504 39.457 92.8906 39.0117 93.3711C 38.5664 93.8457 38.291 94.5137 38.1855 95.375L 42.9492 95.375L 42.9492 95.252C 42.9023 94.4258 42.6797 93.7871 42.2812 93.3359C 41.8828 92.8789 41.3438 92.6504 40.6641 92.6504ZM 52.3359 101C 52.2422 100.812 52.166 100.479 52.1074 99.998C 51.3516 100.783 50.4492 101.176 49.4004 101.176C 48.4629 101.176 47.6924 100.912 47.0889 100.385C 46.4912 99.8516 46.1924 99.1777 46.1924 98.3633C 46.1924 97.373 46.5674 96.6055 47.3174 96.0605C 48.0732 95.5098 49.1338 95.2344 50.499 95.2344L 52.0811 95.2344L 52.0811 94.4873C 52.0811 93.9189 51.9111 93.4678 51.5713 93.1338C 51.2314 92.7939 50.7305 92.624 50.0684 92.624C 49.4883 92.624 49.002 92.7705 48.6094 93.0635C 48.2168 93.3564 48.0205 93.7109 48.0205 94.127L 46.3857 94.127C 46.3857 93.6523 46.5527 93.1953 46.8867 92.7559C 47.2266 92.3105 47.6836 91.959 48.2578 91.7012C 48.8379 91.4434 49.4736 91.3145 50.165 91.3145C 51.2607 91.3145 52.1191 91.5898 52.7402 92.1406C 53.3613 92.6855 53.6836 93.4385 53.707 94.3994L 53.707 98.7764C 53.707 99.6494 53.8184 100.344 54.041 100.859L 54.041 101L 52.3359 101ZM 49.6377 99.7607C 50.1475 99.7607 50.6309 99.6289 51.0879 99.3652C 51.5449 99.1016 51.876 98.7588 52.0811 98.3369L 52.0811 96.3857L 50.8066 96.3857C 48.8145 96.3857 47.8184 96.9688 47.8184 98.1348C 47.8184 98.6445 47.9883 99.043 48.3281 99.3301C 48.668 99.6172 49.1045 99.7607 49.6377 99.7607ZM 57.7852 91.4902L 57.8291 92.5449C 58.5264 91.7246 59.4668 91.3145 60.6504 91.3145C 61.9805 91.3145 62.8857 91.8242 63.3662 92.8438C 63.6826 92.3867 64.0928 92.0176 64.5967 91.7363C 65.1064 91.4551 65.707 91.3145 66.3984 91.3145C 68.4844 91.3145 69.5449 92.4189 69.5801 94.6279L 69.5801 101L 67.9541 101L 67.9541 94.7246C 67.9541 94.0449 67.7988 93.5381 67.4883 93.2041C 67.1777 92.8643 66.6562 92.6943 65.9238 92.6943C 65.3203 92.6943 64.8193 92.876 64.4209 93.2393C 64.0225 93.5967 63.791 94.0801 63.7266 94.6895L 63.7266 101L 62.0918 101L 62.0918 94.7686C 62.0918 93.3857 61.415 92.6943 60.0615 92.6943C 58.9951 92.6943 58.2656 93.1484 57.873 94.0566L 57.873 101L 56.2471 101L 56.2471 91.4902L 57.7852 91.4902ZM 39.8994 110.592L 35.7861 110.592L 35.7861 122L 34.1074 122L 34.1074 110.592L 30.0029 110.592L 30.0029 109.203L 39.8994 109.203L 39.8994 110.592ZM 45.4717 113.949C 45.2256 113.908 44.959 113.888 44.6719 113.888C 43.6055 113.888 42.8818 114.342 42.501 115.25L 42.501 122L 40.875 122L 40.875 112.49L 42.457 112.49L 42.4834 113.589C 43.0166 112.739 43.7725 112.314 44.751 112.314C 45.0674 112.314 45.3076 112.355 45.4717 112.438L 45.4717 113.949ZM 50.2441 119.618L 52.459 112.49L 54.1992 112.49L 50.376 123.468C 49.7842 125.05 48.8438 125.841 47.5547 125.841L 47.2471 125.814L 46.6406 125.7L 46.6406 124.382L 47.0801 124.417C 47.6309 124.417 48.0586 124.306 48.3633 124.083C 48.6738 123.86 48.9287 123.453 49.1279 122.861L 49.4883 121.895L 46.0957 112.49L 47.8711 112.49L 50.2441 119.618ZM 21.6621 140.759L 25.3184 130.203L 27.1641 130.203L 22.418 143L 20.9238 143L 16.1865 130.203L 18.0234 130.203L 21.6621 140.759ZM 32.1914 143.176C 30.9023 143.176 29.8535 142.754 29.0449 141.91C 28.2363 141.061 27.832 139.927 27.832 138.509L 27.832 138.21C 27.832 137.267 28.0107 136.426 28.3682 135.688C 28.7314 134.943 29.2354 134.363 29.8799 133.947C 30.5303 133.525 31.2334 133.314 31.9893 133.314C 33.2256 133.314 34.1865 133.722 34.8721 134.536C 35.5576 135.351 35.9004 136.517 35.9004 138.034L 35.9004 138.711L 29.458 138.711C 29.4814 139.648 29.7539 140.407 30.2754 140.987C 30.8027 141.562 31.4707 141.849 32.2793 141.849C 32.8535 141.849 33.3398 141.731 33.7383 141.497C 34.1367 141.263 34.4854 140.952 34.7842 140.565L 35.7773 141.339C 34.9805 142.563 33.7852 143.176 32.1914 143.176ZM 31.9893 134.65C 31.333 134.65 30.7822 134.891 30.3369 135.371C 29.8916 135.846 29.6162 136.514 29.5107 137.375L 34.2744 137.375L 34.2744 137.252C 34.2275 136.426 34.0049 135.787 33.6064 135.336C 33.208 134.879 32.6689 134.65 31.9893 134.65ZM 41.6045 141.849C 42.1846 141.849 42.6914 141.673 43.125 141.321C 43.5586 140.97 43.7988 140.53 43.8457 140.003L 45.3838 140.003C 45.3545 140.548 45.167 141.066 44.8213 141.559C 44.4756 142.051 44.0127 142.443 43.4326 142.736C 42.8584 143.029 42.249 143.176 41.6045 143.176C 40.3096 143.176 39.2783 142.745 38.5107 141.884C 37.749 141.017 37.3682 139.833 37.3682 138.333L 37.3682 138.061C 37.3682 137.135 37.5381 136.312 37.8779 135.591C 38.2178 134.87 38.7041 134.311 39.3369 133.912C 39.9756 133.514 40.7285 133.314 41.5957 133.314C 42.6621 133.314 43.5469 133.634 44.25 134.272C 44.959 134.911 45.3369 135.74 45.3838 136.76L 43.8457 136.76C 43.7988 136.145 43.5645 135.641 43.1426 135.248C 42.7266 134.85 42.2109 134.65 41.5957 134.65C 40.7695 134.65 40.1279 134.949 39.6709 135.547C 39.2197 136.139 38.9941 136.997 38.9941 138.122L 38.9941 138.43C 38.9941 139.525 39.2197 140.369 39.6709 140.961C 40.1221 141.553 40.7666 141.849 41.6045 141.849ZM 49.418 131.188L 49.418 133.49L 51.1934 133.49L 51.1934 134.747L 49.418 134.747L 49.418 140.645C 49.418 141.025 49.4971 141.312 49.6553 141.506C 49.8135 141.693 50.083 141.787 50.4639 141.787C 50.6514 141.787 50.9092 141.752 51.2373 141.682L 51.2373 143C 50.8096 143.117 50.3936 143.176 49.9893 143.176C 49.2627 143.176 48.7148 142.956 48.3457 142.517C 47.9766 142.077 47.792 141.453 47.792 140.645L 47.792 134.747L 46.0605 134.747L 46.0605 133.49L 47.792 133.49L 47.792 131.188L 49.418 131.188ZM 52.4941 138.157C 52.4941 137.226 52.6758 136.388 53.0391 135.644C 53.4082 134.899 53.918 134.325 54.5684 133.921C 55.2246 133.517 55.9717 133.314 56.8096 133.314C 58.1045 133.314 59.1504 133.763 59.9473 134.659C 60.75 135.556 61.1514 136.748 61.1514 138.236L 61.1514 138.351C 61.1514 139.276 60.9727 140.108 60.6152 140.847C 60.2637 141.579 59.7568 142.15 59.0947 142.561C 58.4385 142.971 57.6826 143.176 56.8271 143.176C 55.5381 143.176 54.4922 142.728 53.6895 141.831C 52.8926 140.935 52.4941 139.748 52.4941 138.271L 52.4941 138.157ZM 54.1289 138.351C 54.1289 139.405 54.3721 140.252 54.8584 140.891C 55.3506 141.529 56.0068 141.849 56.8271 141.849C 57.6533 141.849 58.3096 141.526 58.7959 140.882C 59.2822 140.231 59.5254 139.323 59.5254 138.157C 59.5254 137.114 59.2764 136.271 58.7783 135.626C 58.2861 134.976 57.6299 134.65 56.8096 134.65C 56.0068 134.65 55.3594 134.97 54.8672 135.608C 54.375 136.247 54.1289 137.161 54.1289 138.351ZM 67.7871 134.949C 67.541 134.908 67.2744 134.888 66.9873 134.888C 65.9209 134.888 65.1973 135.342 64.8164 136.25L 64.8164 143L 63.1904 143L 63.1904 133.49L 64.7725 133.49L 64.7988 134.589C 65.332 133.739 66.0879 133.314 67.0664 133.314C 67.3828 133.314 67.623 133.355 67.7871 133.438L 67.7871 134.949ZM 22.8398 158.806C 22.8398 157.481 23.0156 156.21 23.3672 154.991C 23.7246 153.772 24.2549 152.665 24.958 151.669C 25.6611 150.673 26.3906 149.97 27.1465 149.56L 27.4805 150.632C 26.625 151.288 25.9219 152.29 25.3711 153.638C 24.8262 154.985 24.5273 156.494 24.4746 158.164L 24.4658 158.911C 24.4658 161.173 24.8789 163.136 25.7051 164.8C 26.2031 165.796 26.7949 166.575 27.4805 167.138L 27.1465 168.131C 26.3672 167.697 25.623 166.971 24.9141 165.951C 23.5312 163.959 22.8398 161.577 22.8398 158.806ZM 36.375 160.66L 31.0137 160.66L 29.8096 164L 28.0693 164L 32.9561 151.203L 34.4326 151.203L 39.3281 164L 37.5967 164L 36.375 160.66ZM 31.5234 159.271L 35.874 159.271L 33.6943 153.286L 31.5234 159.271ZM 40.7432 166.549L 39.8203 165.916C 40.3711 165.148 40.6582 164.357 40.6816 163.543L 40.6816 162.075L 42.2725 162.075L 42.2725 163.35C 42.2725 163.941 42.126 164.533 41.833 165.125C 41.5459 165.717 41.1826 166.191 40.7432 166.549ZM 50.7012 160.396C 50.7129 159.699 50.792 159.148 50.9385 158.744C 51.085 158.34 51.3838 157.892 51.835 157.399L 52.9863 156.213C 53.4785 155.656 53.7246 155.059 53.7246 154.42C 53.7246 153.805 53.5635 153.324 53.2412 152.979C 52.9189 152.627 52.4502 152.451 51.835 152.451C 51.2373 152.451 50.7568 152.609 50.3936 152.926C 50.0303 153.242 49.8486 153.667 49.8486 154.2L 48.2227 154.2C 48.2344 153.251 48.5713 152.486 49.2334 151.906C 49.9014 151.32 50.7686 151.027 51.835 151.027C 52.9424 151.027 53.8037 151.326 54.4189 151.924C 55.04 152.516 55.3506 153.33 55.3506 154.367C 55.3506 155.393 54.876 156.403 53.9268 157.399L 52.9688 158.349C 52.541 158.823 52.3271 159.506 52.3271 160.396L 50.7012 160.396ZM 50.6309 163.183C 50.6309 162.919 50.71 162.699 50.8682 162.523C 51.0322 162.342 51.2725 162.251 51.5889 162.251C 51.9053 162.251 52.1455 162.342 52.3096 162.523C 52.4736 162.699 52.5557 162.919 52.5557 163.183C 52.5557 163.446 52.4736 163.666 52.3096 163.842C 52.1455 164.012 51.9053 164.097 51.5889 164.097C 51.2725 164.097 51.0322 164.012 50.8682 163.842C 50.71 163.666 50.6309 163.446 50.6309 163.183ZM 61.0547 158.894C 61.0547 160.2 60.8818 161.454 60.5361 162.655C 60.1963 163.851 59.6719 164.955 58.9629 165.969C 58.2598 166.982 57.5215 167.703 56.748 168.131L 56.4053 167.138C 57.3076 166.446 58.0312 165.374 58.5762 163.921C 59.127 162.462 59.4082 160.845 59.4199 159.069L 59.4199 158.788C 59.4199 157.558 59.291 156.415 59.0332 155.36C 58.7754 154.3 58.415 153.351 57.9521 152.513C 57.4951 151.675 56.9795 151.021 56.4053 150.553L 56.748 149.56C 57.5215 149.987 58.2568 150.702 58.9541 151.704C 59.6572 152.706 60.1816 153.811 60.5273 155.018C 60.8789 156.225 61.0547 157.517 61.0547 158.894Z"/>
<path id="path6_fill" d="M 8.54297 11.3486L 3.17285 11.3486L 3.17285 17L 1.48535 17L 1.48535 4.20312L 9.41309 4.20312L 9.41309 5.5918L 3.17285 5.5918L 3.17285 9.96875L 8.54297 9.96875L 8.54297 11.3486ZM 21.2783 11.0146C 21.2783 12.2686 21.0674 13.3643 20.6455 14.3018C 20.2236 15.2334 19.626 15.9453 18.8525 16.4375C 18.0791 16.9297 17.1768 17.1758 16.1455 17.1758C 15.1377 17.1758 14.2441 16.9297 13.4648 16.4375C 12.6855 15.9395 12.0791 15.2334 11.6455 14.3193C 11.2178 13.3994 10.998 12.3359 10.9863 11.1289L 10.9863 10.2061C 10.9863 8.97559 11.2002 7.88867 11.6279 6.94531C 12.0557 6.00195 12.6592 5.28125 13.4385 4.7832C 14.2236 4.2793 15.1201 4.02734 16.1279 4.02734C 17.1533 4.02734 18.0557 4.27637 18.835 4.77441C 19.6201 5.2666 20.2236 5.98438 20.6455 6.92773C 21.0674 7.86523 21.2783 8.95801 21.2783 10.2061L 21.2783 11.0146ZM 19.5996 10.1885C 19.5996 8.6709 19.2949 7.50781 18.6855 6.69922C 18.0762 5.88477 17.2236 5.47754 16.1279 5.47754C 15.0615 5.47754 14.2207 5.88477 13.6055 6.69922C 12.9961 7.50781 12.6826 8.63281 12.665 10.0742L 12.665 11.0146C 12.665 12.4854 12.9727 13.6426 13.5879 14.4863C 14.209 15.3242 15.0615 15.7432 16.1455 15.7432C 17.2354 15.7432 18.0791 15.3477 18.6768 14.5566C 19.2744 13.7598 19.582 12.6201 19.5996 11.1377L 19.5996 10.1885ZM 25.5059 15.6201L 31.5703 15.6201L 31.5703 17L 23.8096 17L 23.8096 4.20312L 25.5059 4.20312L 25.5059 15.6201ZM 33.4951 17L 33.4951 4.20312L 37.1074 4.20312C 38.2207 4.20312 39.2051 4.44922 40.0605 4.94141C 40.916 5.43359 41.5752 6.13379 42.0381 7.04199C 42.5068 7.9502 42.7441 8.99316 42.75 10.1709L 42.75 10.9883C 42.75 12.1953 42.5156 13.2529 42.0469 14.1611C 41.584 15.0693 40.9189 15.7666 40.0518 16.2529C 39.1904 16.7393 38.1855 16.9883 37.0371 17L 33.4951 17ZM 35.1826 5.5918L 35.1826 15.6201L 36.958 15.6201C 38.2588 15.6201 39.2695 15.2158 39.9902 14.4072C 40.7168 13.5986 41.0801 12.4473 41.0801 10.9531L 41.0801 10.2061C 41.0801 8.75293 40.7373 7.625 40.0518 6.82227C 39.3721 6.01367 38.4053 5.60352 37.1514 5.5918L 35.1826 5.5918ZM 52.1807 13.6602L 46.8193 13.6602L 45.6152 17L 43.875 17L 48.7617 4.20312L 50.2383 4.20312L 55.1338 17L 53.4023 17L 52.1807 13.6602ZM 47.3291 12.2715L 51.6797 12.2715L 49.5 6.28613L 47.3291 12.2715ZM 56.8564 17L 56.8564 4.20312L 61.04 4.20312C 62.4287 4.20312 63.4717 4.49023 64.1689 5.06445C 64.8721 5.63867 65.2236 6.48828 65.2236 7.61328C 65.2236 8.21094 65.0537 8.74121 64.7139 9.2041C 64.374 9.66113 63.9111 10.0156 63.3252 10.2676C 64.0166 10.4609 64.5615 10.8301 64.96 11.375C 65.3643 11.9141 65.5664 12.5586 65.5664 13.3086C 65.5664 14.457 65.1943 15.3594 64.4502 16.0156C 63.7061 16.6719 62.6543 17 61.2949 17L 56.8564 17ZM 58.5439 11.0146L 58.5439 15.6201L 61.3301 15.6201C 62.1152 15.6201 62.7334 15.418 63.1846 15.0137C 63.6416 14.6035 63.8701 14.041 63.8701 13.3262C 63.8701 11.7852 63.0322 11.0146 61.3564 11.0146L 58.5439 11.0146ZM 58.5439 9.66113L 61.0928 9.66113C 61.8311 9.66113 62.4199 9.47656 62.8594 9.10742C 63.3047 8.73828 63.5273 8.2373 63.5273 7.60449C 63.5273 6.90137 63.3223 6.3916 62.9121 6.0752C 62.502 5.75293 61.8779 5.5918 61.04 5.5918L 58.5439 5.5918L 58.5439 9.66113ZM 69.7676 15.6201L 75.832 15.6201L 75.832 17L 68.0713 17L 68.0713 4.20312L 69.7676 4.20312L 69.7676 15.6201ZM 84.9902 11.085L 79.4443 11.085L 79.4443 15.6201L 85.8867 15.6201L 85.8867 17L 77.7568 17L 77.7568 4.20312L 85.7988 4.20312L 85.7988 5.5918L 79.4443 5.5918L 79.4443 9.70508L 84.9902 9.70508L 84.9902 11.085Z"/>
<path id="path7_fill" d="M 8.54297 11.3486L 3.17285 11.3486L 3.17285 17L 1.48535 17L 1.48535 4.20312L 9.41309 4.20312L 9.41309 5.5918L 3.17285 5.5918L 3.17285 9.96875L 8.54297 9.96875L 8.54297 11.3486ZM 20.4434 4.20312L 20.4434 12.9043C 20.4375 14.1113 20.0566 15.0986 19.3008 15.8662C 18.5508 16.6338 17.5312 17.0645 16.2422 17.1582L 15.7939 17.1758C 14.3936 17.1758 13.2773 16.7979 12.4453 16.042C 11.6133 15.2861 11.1914 14.2461 11.1797 12.9219L 11.1797 4.20312L 12.8496 4.20312L 12.8496 12.8691C 12.8496 13.7949 13.1045 14.5156 13.6143 15.0312C 14.124 15.541 14.8506 15.7959 15.7939 15.7959C 16.749 15.7959 17.4785 15.541 17.9824 15.0312C 18.4922 14.5215 18.7471 13.8037 18.7471 12.8779L 18.7471 4.20312L 20.4434 4.20312ZM 32.9414 17L 31.2451 17L 24.8027 7.13867L 24.8027 17L 23.1064 17L 23.1064 4.20312L 24.8027 4.20312L 31.2627 14.1084L 31.2627 4.20312L 32.9414 4.20312L 32.9414 17ZM 45.3516 12.9395C 45.1934 14.293 44.6924 15.3389 43.8486 16.0771C 43.0107 16.8096 41.8945 17.1758 40.5 17.1758C 38.9883 17.1758 37.7754 16.6338 36.8613 15.5498C 35.9531 14.4658 35.499 13.0156 35.499 11.1992L 35.499 9.96875C 35.499 8.7793 35.71 7.7334 36.1318 6.83105C 36.5596 5.92871 37.1631 5.2373 37.9424 4.75684C 38.7217 4.27051 39.624 4.02734 40.6494 4.02734C 42.0088 4.02734 43.0986 4.4082 43.9189 5.16992C 44.7393 5.92578 45.2168 6.97461 45.3516 8.31641L 43.6553 8.31641C 43.5088 7.29688 43.1895 6.55859 42.6973 6.10156C 42.2109 5.64453 41.5283 5.41602 40.6494 5.41602C 39.5713 5.41602 38.7246 5.81445 38.1094 6.61133C 37.5 7.4082 37.1953 8.54199 37.1953 10.0127L 37.1953 11.252C 37.1953 12.6406 37.4854 13.7451 38.0654 14.5654C 38.6455 15.3857 39.457 15.7959 40.5 15.7959C 41.4375 15.7959 42.1553 15.585 42.6533 15.1631C 43.1572 14.7354 43.4912 13.9941 43.6553 12.9395L 45.3516 12.9395ZM 56.2412 5.5918L 52.1279 5.5918L 52.1279 17L 50.4492 17L 50.4492 5.5918L 46.3447 5.5918L 46.3447 4.20312L 56.2412 4.20312L 56.2412 5.5918ZM 67.7373 11.0146C 67.7373 12.2686 67.5264 13.3643 67.1045 14.3018C 66.6826 15.2334 66.085 15.9453 65.3115 16.4375C 64.5381 16.9297 63.6357 17.1758 62.6045 17.1758C 61.5967 17.1758 60.7031 16.9297 59.9238 16.4375C 59.1445 15.9395 58.5381 15.2334 58.1045 14.3193C 57.6768 13.3994 57.457 12.3359 57.4453 11.1289L 57.4453 10.2061C 57.4453 8.97559 57.6592 7.88867 58.0869 6.94531C 58.5146 6.00195 59.1182 5.28125 59.8975 4.7832C 60.6826 4.2793 61.5791 4.02734 62.5869 4.02734C 63.6123 4.02734 64.5146 4.27637 65.2939 4.77441C 66.0791 5.2666 66.6826 5.98438 67.1045 6.92773C 67.5264 7.86523 67.7373 8.95801 67.7373 10.2061L 67.7373 11.0146ZM 66.0586 10.1885C 66.0586 8.6709 65.7539 7.50781 65.1445 6.69922C 64.5352 5.88477 63.6826 5.47754 62.5869 5.47754C 61.5205 5.47754 60.6797 5.88477 60.0645 6.69922C 59.4551 7.50781 59.1416 8.63281 59.124 10.0742L 59.124 11.0146C 59.124 12.4854 59.4316 13.6426 60.0469 14.4863C 60.668 15.3242 61.5205 15.7432 62.6045 15.7432C 63.6943 15.7432 64.5381 15.3477 65.1357 14.5566C 65.7334 13.7598 66.041 12.6201 66.0586 11.1377L 66.0586 10.1885ZM 74.9619 11.8232L 71.9561 11.8232L 71.9561 17L 70.2598 17L 70.2598 4.20312L 74.4961 4.20312C 75.9375 4.20312 77.0449 4.53125 77.8184 5.1875C 78.5977 5.84375 78.9873 6.79883 78.9873 8.05273C 78.9873 8.84961 78.7705 9.54395 78.3369 10.1357C 77.9092 10.7275 77.3115 11.1699 76.5439 11.4629L 79.5498 16.8945L 79.5498 17L 77.7393 17L 74.9619 11.8232ZM 71.9561 10.4434L 74.5488 10.4434C 75.3867 10.4434 76.0518 10.2266 76.5439 9.79297C 77.042 9.35938 77.291 8.7793 77.291 8.05273C 77.291 7.26172 77.0537 6.65527 76.5791 6.2334C 76.1104 5.81152 75.4307 5.59766 74.54 5.5918L 71.9561 5.5918L 71.9561 10.4434Z"/>
</defs>
</svg>
